<svg xmlns="http://www.w3.org/2000/svg" width="24" height="24" viewBox="0 0 24 24">
  <g id="all-games" transform="translate(2742 -1810)">
    <rect id="Rectangle_2" data-name="Rectangle 2" width="24" height="24" transform="translate(-2742 1810)" fill="none" opacity="0.091"/>
    <path id="All_Games" data-name="All Games" d="M10,20H6.428a.714.714,0,0,1,0-1.429H9.286v-4.35a8.027,8.027,0,0,1-3.328-1.505,5.633,5.633,0,0,1-2.335-3.5A4.062,4.062,0,0,1,1.129,7.395,7.006,7.006,0,0,1,0,3.571V2.857a.714.714,0,0,1,.714-.715H3.576c0-.281,0-.521,0-.7A1.432,1.432,0,0,1,5,.011L14.994,0a1.43,1.43,0,0,1,1.429,1.429c0,.042,0,.3,0,.714h2.861A.715.715,0,0,1,20,2.857v.714a7,7,0,0,1-1.13,3.823,4.061,4.061,0,0,1-2.493,1.823,5.634,5.634,0,0,1-2.336,3.5,8.041,8.041,0,0,1-3.326,1.5v4.35h2.857a.714.714,0,1,1,0,1.429ZM6.819,11.578A6.055,6.055,0,0,0,10,12.856a5.909,5.909,0,0,0,3.18-1.279A4.092,4.092,0,0,0,15,8.572c0-2.575-.005-6.957-.005-7.142l-9.989.01C5,2.12,5,3.561,5,5,5,6.414,5,7.825,5,8.526c0,.015,0,.03,0,.046s0,.027,0,.04A4.124,4.124,0,0,0,6.819,11.578ZM16.428,7.71A3.032,3.032,0,0,0,17.685,6.6a5.541,5.541,0,0,0,.886-3.025H16.425C16.427,4.813,16.428,6.386,16.428,7.71ZM2.315,6.6A3.032,3.032,0,0,0,3.57,7.71c0-.743,0-1.726,0-2.709,0-.486,0-.972,0-1.429H1.429A5.535,5.535,0,0,0,2.315,6.6Z" transform="translate(-2740 1812)" fill="#6e737f"/>
  </g>
</svg>
