<svg xmlns="http://www.w3.org/2000/svg" width="24" height="24" viewBox="0 0 24 24">
  <g id="leagues" transform="translate(2742 -1810)">
    <rect id="Rectangle_2" data-name="Rectangle 2" width="24" height="24" transform="translate(-2742 1810)" fill="none" opacity="0.091"/>
    <path id="Leagues-2" data-name="Leagues" d="M5.241,18.217a9.225,9.225,0,0,1-3.1-3.918l-.331.148a.714.714,0,0,1-.943-.36A10,10,0,0,1,10,0a.714.714,0,0,1,.715.714v.715A9.286,9.286,0,1,1,5.241,18.217Zm.842-1.154a7.857,7.857,0,1,0,4.631-14.2V10a.715.715,0,0,1-.423.652L3.45,13.714A7.8,7.8,0,0,0,6.083,17.062ZM3.939,3.939a8.591,8.591,0,0,0-2.03,8.9l.3-.135a.718.718,0,0,1,.1-.043L9.286,9.537V1.458A8.5,8.5,0,0,0,3.939,3.939Z" transform="translate(-2740 1812)" fill="#6e737f"/>
  </g>
</svg>
