<svg xmlns="http://www.w3.org/2000/svg" width="24" height="24" viewBox="0 0 24 24">
  <g id="live" transform="translate(2742 -1810)">
    <rect id="Rectangle_2" data-name="Rectangle 2" width="24" height="24" transform="translate(-2742 1810)" fill="none" opacity="0.091"/>
    <path id="Live-2" data-name="Live" d="M5.514,22.833A1.514,1.514,0,0,1,4,21.319V4.347A1.514,1.514,0,0,1,6.194,2.994l16.972,8.49a1.514,1.514,0,0,1,0,2.706L6.194,22.672a1.506,1.506,0,0,1-.68.161Zm0-18.53-.051.044V21.319l.073.044,16.972-8.475a.044.044,0,0,0,0-.044Z" transform="translate(-2744 1809.167)" fill="#6e737f"/>
  </g>
</svg>
